<svg width="150" height="50" fill="none" xmlns="http://www.w3.org/2000/svg"><path d="M137.668 0H11.918c-.458 0-.91 0-1.368.003-.383.002-.762.01-1.149.015-.84.01-1.676.084-2.505.221a8.331 8.331 0 00-2.376.784 8.047 8.047 0 00-3.496 3.5 8.251 8.251 0 00-.781 2.379c-.14.827-.214 1.664-.224 2.502-.012.384-.013.768-.019 1.152v28.892c.006.388.007.764.019 1.153.01.838.085 1.675.224 2.502.137.829.4 1.631.781 2.38a7.76 7.76 0 001.473 2.018 7.844 7.844 0 002.023 1.474c.748.38 1.55.646 2.376.788.829.136 1.666.21 2.505.221.387.009.766.014 1.149.014.457.002.91.002 1.368.002h125.75c.45 0 .906 0 1.355-.002.381 0 .772-.005 1.153-.014.838-.01 1.673-.084 2.5-.22a8.509 8.509 0 002.385-.79 7.859 7.859 0 002.022-1.473 8.01 8.01 0 001.477-2.018c.377-.75.638-1.552.773-2.38.14-.827.217-1.664.232-2.502.005-.389.005-.765.005-1.153.01-.454.01-.906.01-1.367v-26.16c0-.459 0-.913-.01-1.365 0-.384 0-.768-.005-1.152a16.796 16.796 0 00-.232-2.502 8.247 8.247 0 00-.773-2.38 8.088 8.088 0 00-3.499-3.5 8.468 8.468 0 00-2.385-.783 16.309 16.309 0 00-2.5-.22c-.381-.007-.772-.014-1.153-.017C138.574 0 138.118 0 137.668 0z" fill="#A6A6A6"/><path d="M10.556 48.906c-.38 0-.752-.005-1.13-.013a15.863 15.863 0 01-2.337-.204 7.354 7.354 0 01-2.07-.685 6.758 6.758 0 01-1.747-1.27 6.652 6.652 0 01-1.276-1.746 7.153 7.153 0 01-.678-2.072 15.515 15.515 0 01-.208-2.343c-.008-.264-.019-1.142-.019-1.142V10.555s.011-.864.019-1.118c.01-.784.078-1.566.207-2.34a7.171 7.171 0 01.679-2.077 6.717 6.717 0 011.269-1.748 6.957 6.957 0 011.753-1.278 7.279 7.279 0 012.066-.68A15.734 15.734 0 019.43 1.11l1.128-.015h128.46l1.142.016c.778.009 1.555.077 2.323.203.726.123 1.43.354 2.088.685a6.99 6.99 0 013.019 3.025 7.2 7.2 0 01.669 2.06c.13.78.202 1.57.217 2.36.004.354.004.734.004 1.112.01.47.01.915.01 1.365v26.161c0 .454 0 .897-.01 1.344 0 .407 0 .779-.005 1.162a15.916 15.916 0 01-.213 2.317 7.206 7.206 0 01-.675 2.087 6.855 6.855 0 01-1.27 1.733 6.77 6.77 0 01-1.749 1.278 7.341 7.341 0 01-2.085.687c-.773.126-1.554.194-2.337.204a51.92 51.92 0 01-1.121.013l-1.355.003-127.113-.003z" fill="#000"/><path d="M30.961 25.376a6.186 6.186 0 012.946-5.19 6.332 6.332 0 00-4.99-2.697c-2.098-.22-4.133 1.256-5.203 1.256-1.09 0-2.737-1.234-4.51-1.198a6.644 6.644 0 00-5.592 3.41c-2.417 4.185-.614 10.337 1.702 13.72 1.159 1.657 2.513 3.507 4.284 3.442 1.734-.072 2.382-1.106 4.475-1.106 2.073 0 2.68 1.106 4.488 1.064 1.86-.03 3.033-1.664 4.151-3.337a13.7 13.7 0 001.898-3.865 5.978 5.978 0 01-3.649-5.5zm-3.414-10.112A6.09 6.09 0 0028.94 10.9a6.197 6.197 0 00-4.01 2.075 5.795 5.795 0 00-1.43 4.202 5.124 5.124 0 004.047-1.913z" fill="#fff"/><path fill-rule="evenodd" clip-rule="evenodd" d="M46.961 33.925h5.917l1.42 4.195h2.548l-5.604-15.522h-2.604L43.034 38.12h2.506l1.421-4.195zm5.303-1.936h-4.69l2.313-6.81h.065l2.312 6.81zm11.963 6.25c2.84 0 4.722-2.26 4.722-5.777 0-3.507-1.893-5.777-4.765-5.777a4.014 4.014 0 00-3.604 2h-.042v-1.882h-2.249v15.061h2.323v-5.605h.054a3.837 3.837 0 003.56 1.98zm-.656-9.574c1.807 0 2.99 1.506 2.99 3.797 0 2.312-1.183 3.808-2.99 3.808-1.775 0-2.969-1.528-2.969-3.808 0-2.26 1.194-3.797 2.97-3.797zm13.112 9.574c2.84 0 4.723-2.26 4.723-5.777 0-3.507-1.894-5.777-4.766-5.777a4.014 4.014 0 00-3.604 2h-.042v-1.882h-2.249v15.061h2.323v-5.605h.054a3.837 3.837 0 003.56 1.98zm-.656-9.574c1.807 0 2.99 1.506 2.99 3.797 0 2.312-1.183 3.808-2.99 3.808-1.775 0-2.969-1.528-2.969-3.808 0-2.26 1.194-3.797 2.97-3.797z" fill="#fff"/><path d="M89.638 33.795c.172 1.54 1.668 2.55 3.711 2.55 1.958 0 3.367-1.01 3.367-2.399 0-1.204-.85-1.926-2.861-2.42l-2.012-.485c-2.85-.688-4.174-2.021-4.174-4.184 0-2.679 2.334-4.518 5.648-4.518 3.28 0 5.529 1.84 5.605 4.518h-2.345c-.14-1.55-1.421-2.485-3.293-2.485-1.87 0-3.151.947-3.151 2.323 0 1.098.818 1.744 2.818 2.238l1.71.42c3.185.753 4.508 2.032 4.508 4.303 0 2.904-2.313 4.723-5.992 4.723-3.442 0-5.767-1.776-5.917-4.584h2.378zm14.545-9.67v2.678h2.152v1.84h-2.152v6.239c0 .969.431 1.42 1.377 1.42.255-.004.51-.022.764-.053v1.828c-.426.08-.858.116-1.291.108-2.291 0-3.184-.86-3.184-3.056v-6.486h-1.646v-1.84h1.646v-2.678h2.334z" fill="#fff"/><path fill-rule="evenodd" clip-rule="evenodd" d="M112.948 26.664c-3.27 0-5.367 2.237-5.367 5.798 0 3.57 2.076 5.798 5.367 5.798 3.293 0 5.369-2.227 5.369-5.798 0-3.56-2.087-5.798-5.369-5.798zm0 1.914c1.883 0 3.002 1.442 3.002 3.884 0 2.452-1.119 3.883-3.002 3.883-1.882 0-3-1.43-3-3.883 0-2.432 1.118-3.884 3-3.884z" fill="#fff"/><path d="M120.232 26.803h2.216v1.926h.054a2.7 2.7 0 012.722-2.044c.268-.001.535.028.796.086v2.173a3.25 3.25 0 00-1.044-.14 2.34 2.34 0 00-2.421 2.604v6.712h-2.323V26.803z" fill="#fff"/><path fill-rule="evenodd" clip-rule="evenodd" d="M131.857 38.26c2.56 0 4.561-1.41 4.873-3.464h-2.206a2.56 2.56 0 01-2.613 1.592 2.95 2.95 0 01-3.045-3.206v-.14h7.994v-.796c0-3.431-1.969-5.582-5.1-5.582-3.184 0-5.239 2.302-5.239 5.852 0 3.539 2.044 5.745 5.336 5.745zm2.678-6.841h-5.658a2.866 2.866 0 012.883-2.873 2.721 2.721 0 012.775 2.873z" fill="#fff"/></svg>