<svg xmlns="http://www.w3.org/2000/svg" width="142" height="50" fill="none"><rect width="142" height="50" rx="8" fill="#000"/><path fill-rule="evenodd" clip-rule="evenodd" d="M5.26 0h131.48c2.905 0 5.26 2.798 5.26 6.25v37.5c0 3.452-2.355 6.25-5.259 6.25H5.259C2.355 50 0 47.202 0 43.75V6.25C0 2.798 2.355 0 5.26 0zm135.899 6.25c0-2.9-1.978-5.25-4.417-5.25H5.26C2.82 1 .842 3.35.842 6.25v37.5C.842 46.65 2.82 49 5.26 49h131.482c2.439 0 4.417-2.35 4.417-5.25V6.25z" fill="#A6A6A6"/><path d="M62.294 35.524h-5.783L55.301 39h-2.697l5.64-14.93h2.328L66.222 39h-2.707l-1.22-3.476zm-5.055-2.092h4.327l-2.163-6.193-2.164 6.193zm19.667.133c0 1.716-.39 3.087-1.169 4.112-.779 1.019-1.825 1.528-3.137 1.528-1.217 0-2.191-.4-2.923-1.2v5.26h-2.492v-15.36h2.297l.103 1.128c.731-.889 1.726-1.333 2.984-1.333 1.353 0 2.413.506 3.179 1.518.772 1.005 1.158 2.403 1.158 4.194v.153zm-2.481-.215c0-1.107-.222-1.986-.667-2.635-.437-.65-1.066-.974-1.886-.974-1.019 0-1.75.42-2.195 1.261v4.922c.451.861 1.19 1.292 2.215 1.292.793 0 1.412-.318 1.856-.954.451-.642.677-1.613.677-2.912zm14.315.215c0 1.716-.39 3.087-1.17 4.112-.779 1.019-1.825 1.528-3.137 1.528-1.217 0-2.191-.4-2.923-1.2v5.26h-2.49v-15.36h2.296l.103 1.128c.731-.889 1.726-1.333 2.984-1.333 1.353 0 2.413.506 3.179 1.518.772 1.005 1.158 2.403 1.158 4.194v.153zm-2.482-.215c0-1.107-.222-1.986-.667-2.635-.437-.65-1.066-.974-1.886-.974-1.019 0-1.75.42-2.195 1.261v4.922c.451.861 1.19 1.292 2.215 1.292.793 0 1.412-.318 1.856-.954.451-.642.677-1.613.677-2.912zm7.721-8.141v2.696h1.959v1.846h-1.959v6.193c0 .424.082.732.246.923.171.185.472.277.902.277.288 0 .578-.034.872-.102v1.927a6.134 6.134 0 01-1.64.236c-1.915 0-2.872-1.056-2.872-3.168V29.75h-1.825v-1.846h1.825v-2.697h2.492zm3.097 8.141c0-1.087.215-2.064.646-2.933.43-.875 1.035-1.544 1.815-2.01.779-.471 1.674-.707 2.686-.707 1.497 0 2.711.482 3.64 1.446.937.964 1.443 2.242 1.518 3.835l.01.584c0 1.094-.212 2.072-.636 2.933-.417.861-1.018 1.528-1.804 2-.78.471-1.682.707-2.707.707-1.566 0-2.82-.52-3.763-1.558-.937-1.046-1.405-2.438-1.405-4.174v-.123zm2.491.215c0 1.142.236 2.038.708 2.687.472.642 1.128.964 1.969.964.84 0 1.493-.328 1.958-.985.472-.656.708-1.616.708-2.88 0-1.122-.243-2.01-.728-2.667-.479-.656-1.132-.984-1.959-.984-.813 0-1.459.324-1.938.974-.478.642-.718 1.606-.718 2.891zm13.536.677l-1.108 1.138V39h-2.492V23.25h2.492v9.085l.779-.974 3.066-3.456h2.994l-4.122 4.625 4.563 6.47h-2.881l-3.291-4.758zm6.9-.892c0-1.087.216-2.064.646-2.933.431-.875 1.036-1.544 1.815-2.01.78-.471 1.675-.707 2.687-.707 1.497 0 2.71.482 3.64 1.446.937.964 1.442 2.242 1.518 3.835l.01.584c0 1.094-.212 2.072-.636 2.933-.417.861-1.018 1.528-1.805 2-.779.471-1.681.707-2.707.707-1.565 0-2.819-.52-3.763-1.558-.936-1.046-1.405-2.438-1.405-4.174v-.123zm2.492.215c0 1.142.236 2.038.708 2.687.471.642 1.128.964 1.968.964.841 0 1.494-.328 1.959-.985.472-.656.707-1.616.707-2.88 0-1.122-.242-2.01-.728-2.667-.478-.656-1.131-.984-1.958-.984-.814 0-1.46.324-1.938.974-.479.642-.718 1.606-.718 2.891z" fill="#fff"/><g clip-path="url(#clip0_4367:5130)"><rect x="12" y="9" width="32" height="32" rx="5" fill="#03BDD4"/><path fill-rule="evenodd" clip-rule="evenodd" d="M41.624 27.897c-.588-.454-1.176-1.48-2.998-1.455-1.998.028-3.416.966-4.036 1.395-.618.427-2.036 1.737-3.408.38-1.305-1.29-5.142-5.095-5.579-5.536-.436-.442-1.195-1.69-.892-3.207.064.352.702 2.055 2.682 2.055h7.919c.639 0 1.126.979 1.164 1.67l-3.567-.23 1.492 1.465s1.157-.989 3.605-.989c.29 0 1.908-.052 2.884 1.303.474.656.734 1.653.734 3.149z" fill="#fff"/><mask id="a" style="mask-type:alpha" maskUnits="userSpaceOnUse" x="14" y="15" width="18" height="16"><path d="M14 15h17.94v15.678H14V15z" fill="#fff"/></mask><g mask="url(#a)"><path fill-rule="evenodd" clip-rule="evenodd" d="M14 15s2.767 7.113 5.588 10.177c2.6 2.823 5.66 3.015 7.097 3.206 3.254.434 5.256 2.295 5.256 2.295s-7.079-6.978-7.3-7.201c-.22-.224-.734-.897-2.198-1.354C18.63 20.933 14 15 14 15z" fill="#fff"/></g><path fill-rule="evenodd" clip-rule="evenodd" d="M17.624 23.45c.57 3.523.945 5.168 3.204 6.118 2.359.992 3.63.623 5.376.474 3.156-.27 4.453.134 5.983 1.1 0 0-1.942-1.785-5.477-2.22-4.62-.57-5.152-1.276-6.464-2.356-1.417-1.165-2.622-3.117-2.622-3.117z" fill="#fff"/><path fill-rule="evenodd" clip-rule="evenodd" d="M31.372 31.072c-.441-.207-1.774-.584-3.24-.624-1.243-.034-2.946.346-4.644.331-.854-.007-1.898-.158-2.538-.499-.024.326-.143 2.515 1.936 2.515.698 0 1.47-.267 2.39-.585.754-.26 1.612-.543 2.576-.85 2.168-.691 3.52-.288 3.52-.288z" fill="#fff"/></g><defs><clipPath id="clip0_4367:5130"><path fill="#fff" transform="translate(12 9)" d="M0 0h32v32H0z"/></clipPath></defs></svg>