<svg xmlns="http://www.w3.org/2000/svg" width="136" height="50" fill="none"><rect width="135.58" height="50" rx="8" fill="#000"/><path fill-rule="evenodd" clip-rule="evenodd" d="M5.021 0H130.56c2.773 0 5.021 2.798 5.021 6.25v37.5c0 3.452-2.248 6.25-5.021 6.25H5.021C2.248 50 0 47.202 0 43.75V6.25C0 2.798 2.248 0 5.021 0zm129.756 6.25c0-2.9-1.888-5.25-4.218-5.25H5.022C2.692 1 .804 3.35.804 6.25v37.5c0 2.9 1.889 5.25 4.218 5.25H130.56c2.33 0 4.218-2.35 4.218-5.25V6.25z" fill="#A6A6A6"/><path d="M61.455 35.524H55.67L54.461 39h-2.696l5.64-14.93h2.327L65.382 39h-2.707l-1.22-3.476zm-5.056-2.092h4.328l-2.164-6.193-2.164 6.193zm19.667.133c0 1.716-.39 3.087-1.169 4.112-.779 1.019-1.825 1.528-3.137 1.528-1.217 0-2.191-.4-2.923-1.2v5.26h-2.491v-15.36h2.297l.102 1.128c.732-.889 1.726-1.333 2.984-1.333 1.353 0 2.413.506 3.179 1.518.772 1.005 1.158 2.403 1.158 4.194v.153zm-2.481-.215c0-1.107-.222-1.986-.666-2.635-.438-.65-1.067-.974-1.887-.974-1.019 0-1.75.42-2.195 1.261v4.922c.452.861 1.19 1.292 2.215 1.292.793 0 1.412-.318 1.856-.954.451-.642.677-1.613.677-2.912zm7.721-8.141v2.696h1.959v1.846h-1.959v6.193c0 .424.082.732.246.923.171.185.472.277.903.277.287 0 .577-.034.871-.102v1.927a6.134 6.134 0 01-1.64.236c-1.915 0-2.872-1.056-2.872-3.168V29.75H76.99v-1.846h1.825v-2.697h2.492zm3.097 8.141c0-1.087.215-2.064.646-2.933.43-.875 1.035-1.544 1.815-2.01.78-.471 1.675-.707 2.686-.707 1.497 0 2.71.482 3.64 1.446.937.964 1.443 2.242 1.518 3.835l.01.584c0 1.094-.212 2.072-.636 2.933a4.617 4.617 0 01-1.804 2c-.78.471-1.682.707-2.707.707-1.566 0-2.82-.52-3.763-1.558-.937-1.046-1.405-2.438-1.405-4.174v-.123zm2.491.215c0 1.142.236 2.038.708 2.687.472.642 1.128.964 1.969.964.84 0 1.493-.328 1.958-.985.472-.656.708-1.616.708-2.88 0-1.122-.243-2.01-.728-2.667-.479-.656-1.132-.984-1.959-.984-.813 0-1.46.324-1.938.974-.478.642-.718 1.606-.718 2.891zM99.476 39h-2.492V27.905h2.492V39zm-2.645-13.976c0-.383.12-.7.358-.954.247-.253.595-.38 1.046-.38.451 0 .8.127 1.046.38s.37.571.37.954a1.3 1.3 0 01-.37.943c-.246.246-.595.37-1.046.37-.45 0-.8-.124-1.046-.37a1.32 1.32 0 01-.358-.943zm4.901 8.346c0-1.708.396-3.079 1.189-4.111.793-1.04 1.856-1.559 3.189-1.559 1.176 0 2.126.41 2.851 1.23v-5.68h2.492V39h-2.256l-.123-1.148c-.745.902-1.74 1.353-2.984 1.353-1.299 0-2.352-.523-3.158-1.569-.8-1.046-1.2-2.468-1.2-4.265zm2.492.216c0 1.128.215 2.01.646 2.645.437.63 1.056.944 1.856.944 1.018 0 1.763-.455 2.235-1.364v-4.737c-.458-.889-1.196-1.333-2.215-1.333-.807 0-1.429.321-1.866.964-.438.635-.656 1.596-.656 2.88zm14.714 5.619c-1.579 0-2.861-.495-3.845-1.487-.978-.998-1.467-2.324-1.467-3.978v-.308c0-1.107.212-2.095.636-2.963.431-.875 1.032-1.555 1.805-2.04a4.757 4.757 0 012.584-.729c1.511 0 2.676.482 3.496 1.446.828.964 1.241 2.328 1.241 4.091v1.005h-7.249c.075.916.379 1.64.912 2.174.54.533 1.217.8 2.031.8 1.141 0 2.071-.462 2.789-1.385l1.343 1.282a4.514 4.514 0 01-1.784 1.549c-.739.362-1.569.543-2.492.543zm-.297-9.505c-.684 0-1.238.239-1.662.718-.417.478-.683 1.145-.799 1.999h4.747v-.185c-.054-.834-.277-1.462-.666-1.886-.39-.431-.93-.646-1.62-.646zM17 15h24v20H17V15z" fill="#fff"/><path d="M37.365 10.048A42.41 42.41 0 0028.07 9a39.564 39.564 0 00-9.187 1.075c-2.934.687-4.937 2.313-5.677 5.285A39.333 39.333 0 0012 24.997a40.699 40.699 0 001.097 9.471 6.932 6.932 0 001.927 3.597 6.892 6.892 0 003.611 1.882 41.065 41.065 0 0018.483 0c2.932-.689 4.936-2.313 5.675-5.316A39.32 39.32 0 0044 24.996a40.676 40.676 0 00-1.097-9.472 6.933 6.933 0 00-1.927-3.595 6.891 6.891 0 00-3.61-1.88zM20.09 27.916l-.248-.25a2.78 2.78 0 01-.63-1.54l-.137-7.93c-.027-.605.385-.827.879-.466l7.512 5.451-7.019 5.037-.357-.302zm16.865-1.736a2.672 2.672 0 01-.879 1.79l-7.13 5.673a1.432 1.432 0 01-1.727 0l-5.183-4.185-.986-.77.004-.005 7.043-5.063 3.454-2.478 4.854-3.469c.411-.166.686.055.686.578l-.136 7.93z" fill="#FF7200"/></svg>