<svg xmlns="http://www.w3.org/2000/svg" width="183" height="50" fill="none"><rect width="183" height="50" rx="8" fill="#000"/><path fill-rule="evenodd" clip-rule="evenodd" d="M6.778 0h169.444C179.965 0 183 2.798 183 6.25v37.5c0 3.452-3.035 6.25-6.778 6.25H6.778C3.035 50 0 47.202 0 43.75V6.25C0 2.798 3.035 0 6.778 0zm175.138 6.25c0-2.9-2.549-5.25-5.693-5.25H6.778C3.635 1 1.086 3.35 1.086 6.25v37.5c0 2.9 2.55 5.25 5.694 5.25h169.444c3.144 0 5.693-2.35 5.693-5.25V6.25z" fill="#A6A6A6"/><path d="M64.96 37.062c-.54.704-1.288 1.237-2.245 1.6-.957.362-2.044.543-3.26.543-1.251 0-2.359-.284-3.323-.851s-1.709-1.377-2.235-2.43c-.52-1.06-.79-2.294-.81-3.702v-1.169c0-2.256.54-4.016 1.62-5.28 1.08-1.272 2.587-1.908 4.522-1.908 1.661 0 2.98.41 3.958 1.23.978.821 1.565 2.004 1.764 3.549h-2.543c-.287-1.798-1.33-2.697-3.128-2.697-1.162 0-2.047.42-2.656 1.261-.601.834-.912 2.061-.933 3.681v1.149c0 1.613.339 2.867 1.015 3.763.684.888 1.63 1.333 2.84 1.333 1.327 0 2.27-.301 2.831-.903V33.31h-3.076v-1.97h5.66v5.722zM74.2 39c-.11-.212-.205-.557-.287-1.036-.793.827-1.764 1.241-2.912 1.241-1.115 0-2.024-.318-2.728-.954-.704-.635-1.056-1.421-1.056-2.358 0-1.183.437-2.088 1.312-2.717.882-.636 2.14-.954 3.774-.954h1.528v-.728c0-.574-.161-1.032-.482-1.374-.322-.349-.81-.523-1.467-.523-.567 0-1.032.144-1.394.43-.362.281-.544.64-.544 1.077h-2.491c0-.608.201-1.175.605-1.702.403-.533.95-.95 1.64-1.25.698-.301 1.473-.452 2.328-.452 1.299 0 2.334.328 3.107.985.772.649 1.169 1.565 1.19 2.748v5.003c0 .999.14 1.795.42 2.39V39H74.2zm-2.738-1.794c.492 0 .954-.12 1.384-.36a2.39 2.39 0 00.985-.963V33.79h-1.344c-.922 0-1.616.16-2.081.482-.465.321-.698.776-.698 1.364 0 .478.158.861.472 1.148.321.28.749.42 1.282.42zM81.582 39h-2.491V23.25h2.492V39zm9.352 0c-.11-.212-.205-.557-.287-1.036-.793.827-1.764 1.241-2.912 1.241-1.114 0-2.024-.318-2.728-.954-.704-.635-1.056-1.421-1.056-2.358 0-1.183.438-2.088 1.313-2.717.882-.636 2.14-.954 3.773-.954h1.528v-.728c0-.574-.16-1.032-.482-1.374-.321-.349-.81-.523-1.466-.523-.568 0-1.032.144-1.395.43-.362.281-.543.64-.543 1.077h-2.492c0-.608.202-1.175.605-1.702.403-.533.95-.95 1.64-1.25.698-.301 1.474-.452 2.328-.452 1.3 0 2.335.328 3.107.985.773.649 1.17 1.565 1.19 2.748v5.003c0 .999.14 1.795.42 2.39V39h-2.543zm-2.738-1.794a2.8 2.8 0 001.385-.36c.437-.239.765-.56.984-.963V33.79h-1.343c-.923 0-1.617.16-2.082.482-.465.321-.697.776-.697 1.364 0 .478.157.861.472 1.148.32.28.748.42 1.281.42zm11.454-5.65l2.112-3.65h2.769l-3.394 5.465L104.644 39h-2.748l-2.215-3.794L97.476 39h-2.768l3.506-5.63-3.383-5.465h2.748l2.07 3.65zm10.459 3.876l2.256-7.527h2.656l-4.41 12.777c-.676 1.866-1.825 2.799-3.445 2.799-.362 0-.762-.062-1.2-.185V41.37l.472.03c.629 0 1.101-.116 1.415-.348.321-.226.574-.609.759-1.149l.359-.953-3.897-11.044h2.687l2.348 7.527zm19.626-.277c0-.656-.233-1.162-.697-1.518-.458-.355-1.289-.714-2.492-1.077-1.203-.362-2.16-.765-2.871-1.21-1.361-.854-2.041-1.968-2.041-3.342 0-1.203.489-2.195 1.467-2.974.984-.78 2.259-1.169 3.824-1.169 1.039 0 1.966.192 2.779.574.814.383 1.453.93 1.918 1.641.464.704.697 1.487.697 2.348h-2.584c0-.78-.246-1.388-.738-1.825-.486-.444-1.183-.667-2.092-.667-.848 0-1.508.182-1.979.544-.465.362-.697.868-.697 1.518 0 .546.252 1.004.758 1.374.506.362 1.34.717 2.502 1.066 1.162.342 2.095.735 2.8 1.18.704.437 1.22.943 1.548 1.517.328.567.492 1.234.492 2 0 1.243-.478 2.235-1.435 2.973-.951.731-2.243 1.097-3.876 1.097-1.08 0-2.075-.198-2.984-.595-.903-.403-1.607-.957-2.113-1.66-.499-.705-.748-1.525-.748-2.462h2.594c0 .848.28 1.504.841 1.969.56.465 1.364.697 2.41.697.902 0 1.579-.18 2.03-.543.458-.37.687-.855.687-1.456zm7.752-9.947v2.697h1.958v1.846h-1.958v6.193c0 .424.082.732.246.923.171.185.472.277.902.277.287 0 .578-.034.872-.102v1.927a6.137 6.137 0 01-1.641.236c-1.914 0-2.871-1.056-2.871-3.168V29.75h-1.825v-1.846h1.825v-2.697h2.492zm3.096 8.142c0-1.087.216-2.064.646-2.933.431-.875 1.036-1.544 1.815-2.01.78-.471 1.675-.707 2.687-.707 1.497 0 2.71.482 3.64 1.446.937.964 1.442 2.242 1.518 3.835l.01.584c0 1.094-.212 2.072-.636 2.933-.417.861-1.018 1.528-1.805 2-.779.471-1.681.707-2.707.707-1.565 0-2.819-.52-3.763-1.558-.936-1.046-1.405-2.437-1.405-4.174v-.123zm2.492.215c0 1.142.236 2.037.708 2.687.471.642 1.128.964 1.968.964.841 0 1.494-.328 1.959-.985.472-.656.707-1.616.707-2.88 0-1.122-.242-2.01-.728-2.667-.478-.656-1.131-.984-1.958-.984-.814 0-1.46.324-1.938.974-.479.642-.718 1.606-.718 2.891zm15.74-3.383a6.178 6.178 0 00-1.015-.082c-1.142 0-1.911.437-2.307 1.312V39h-2.492V27.905h2.379l.061 1.241c.602-.964 1.436-1.446 2.502-1.446.356 0 .65.048.882.144l-.01 2.338zm6.255 9.023c-1.579 0-2.861-.495-3.845-1.487-.978-.998-1.467-2.324-1.467-3.978v-.308c0-1.107.212-2.095.636-2.963.431-.875 1.032-1.555 1.805-2.04a4.757 4.757 0 012.584-.729c1.51 0 2.676.482 3.496 1.446.827.964 1.241 2.328 1.241 4.091v1.005h-7.249c.075.916.379 1.64.912 2.174.54.533 1.217.8 2.03.8 1.142 0 2.072-.462 2.789-1.385l1.344 1.282a4.52 4.52 0 01-1.784 1.549c-.739.362-1.569.543-2.492.543zm-.298-9.505c-.683 0-1.237.239-1.661.718-.417.478-.683 1.145-.799 1.999h4.747v-.185c-.055-.834-.277-1.463-.666-1.886-.39-.431-.93-.646-1.621-.646z" fill="#fff"/><path d="M12 20c0-6.075 4.925-11 11-11h10c6.075 0 11 4.925 11 11v10c0 6.075-4.925 11-11 11H23c-6.075 0-11-4.925-11-11V20z" fill="url(#a)"/><path fill-rule="evenodd" clip-rule="evenodd" d="M32.974 20.95l-.07-.293c0-2.568-2.2-4.657-4.904-4.657-2.704 0-4.903 2.089-4.903 4.657l-.07.293H19l1.085 9.611C20.303 32.517 22.038 34 24.108 34h7.784c2.07 0 3.805-1.484 4.023-3.438L37 20.95h-4.026zm-7.816 0l.079-.293c0-1.447 1.24-2.624 2.763-2.624 1.524 0 2.763 1.177 2.763 2.624l.08.293h-5.685z" fill="#fff"/><defs><linearGradient id="a" x1="16" y1="10.5" x2="38.5" y2="40" gradientUnits="userSpaceOnUse"><stop offset=".059" stop-color="#D108D2"/><stop offset="1" stop-color="#F76151"/></linearGradient></defs></svg>