<svg width="169" height="50" fill="none" xmlns="http://www.w3.org/2000/svg"><rect width="168.75" height="50" rx="8" fill="#000"/><path fill-rule="evenodd" clip-rule="evenodd" d="M6.25 0H162.5a6.25 6.25 0 016.25 6.25v37.5A6.25 6.25 0 01162.5 50H6.25A6.25 6.25 0 010 43.75V6.25A6.25 6.25 0 016.25 0zm161.5 6.25A5.25 5.25 0 00162.5 1H6.25A5.25 5.25 0 001 6.25v37.5C1 46.65 3.35 49 6.25 49H162.5a5.25 5.25 0 005.25-5.25V6.25z" fill="#A6A6A6"/><path fill-rule="evenodd" clip-rule="evenodd" d="M59.675 28.825v2.25h5.4a4.712 4.712 0 01-1.25 2.838 5.525 5.525 0 01-4.175 1.65 6 6 0 110-12 5.8 5.8 0 014.1 1.612l1.588-1.588a7.875 7.875 0 00-5.663-2.274 8.263 8.263 0 100 16.512 7.588 7.588 0 005.763-2.313 7.5 7.5 0 001.95-5.287 7.838 7.838 0 00-.113-1.4h-7.6zm13.85-1.637a5.325 5.325 0 105.338 5.312 5.237 5.237 0 00-5.338-5.313zm6.338 5.337a5.325 5.325 0 015.312-5.337 5.238 5.238 0 015.338 5.312 5.325 5.325 0 11-10.65.025zm2.177 1.373a3.225 3.225 0 003.135 1.827 3.075 3.075 0 003-3.225 3.225 3.225 0 10-6.135 1.398zm-11.65 0a3.225 3.225 0 003.135 1.827 3.075 3.075 0 003-3.225 3.225 3.225 0 10-6.135 1.398zm41.373-6.71a5.001 5.001 0 014.55 3.387l.262.55-7.112 2.938a2.687 2.687 0 002.575 1.612 3.013 3.013 0 002.612-1.462l1.813 1.25a5.289 5.289 0 01-9.7-2.963 4.998 4.998 0 015-5.313zm-2.7 5.162a2.922 2.922 0 012.787-3.113 2.05 2.05 0 011.963 1.138l-4.75 1.975zm-3.438 5.15h-2.337V21.875h2.337V37.5zm-6.162-9.125h-.088a3.675 3.675 0 00-2.8-1.25 5.325 5.325 0 000 10.638 3.6 3.6 0 002.8-1.25h.088v.762c0 2.038-1.088 3.125-2.838 3.125a2.95 2.95 0 01-2.687-1.887l-2.025.837a5 5 0 004.712 3.15c2.738 0 5-1.612 5-5.538V27.5h-2.162v.875zm-5.712 4.131a3.225 3.225 0 003.024 3.219 2.975 2.975 0 002.85-3.225 2.987 2.987 0 00-2.85-3.212 3.225 3.225 0 00-3.024 3.218zm33.512-10.631h-5.6V37.5H124v-5.925h3.263a4.863 4.863 0 100-9.7zm-3.263 7.5h3.263l.05.025a2.675 2.675 0 000-5.35H124v5.325zm17.688-2.238a4.364 4.364 0 00-4.163 2.388l2.063.863a2.224 2.224 0 012.137-1.138 2.25 2.25 0 012.5 2.012v.15a5.225 5.225 0 00-2.437-.6c-2.225 0-4.5 1.25-4.5 3.525a3.613 3.613 0 003.887 3.438 3.312 3.312 0 002.975-1.525h.075v1.25h2.25v-6.012c0-2.738-2.075-4.325-4.737-4.325l-.05-.026zm-2.113 7.238c0 .938 1.063 1.325 1.825 1.325l.05.025a2.825 2.825 0 002.75-2.5 4.148 4.148 0 00-2.125-.525c-1.175 0-2.5.425-2.5 1.675zm15.1-6.875L152 34.275h-.075L149.15 27.5h-2.5l4.163 9.475-2.375 5.262h2.437l6.4-14.737h-2.6zM136 37.5h-2.325V21.875H136V37.5z" fill="#fff"/><path d="M13.05 9.425a2.5 2.5 0 00-.588 1.75v27.65a2.425 2.425 0 00.588 1.75l.087.1 15.488-15.487v-.375L13.137 9.338l-.087.087z" fill="url(#paint0_linear)"/><path d="M33.75 30.35l-5.125-5.163v-.375l5.125-5.162.112.075L40 23.2c1.75.988 1.75 2.613 0 3.613l-6.112 3.475-.138.062z" fill="url(#paint1_linear)"/><path d="M33.9 30.275L28.625 25 13.05 40.575a2.025 2.025 0 002.587.087L33.9 30.276z" fill="url(#paint2_linear)"/><path d="M33.9 19.725L15.637 9.35a2.013 2.013 0 00-2.587.075L28.625 25l5.275-5.275z" fill="url(#paint3_linear)"/><path opacity=".2" d="M33.75 30.163L15.637 40.474c-.74.558-1.76.558-2.5 0l-.087.087.087.1c.74.559 1.76.559 2.5 0L33.9 30.276l-.15-.112z" fill="#000"/><path opacity=".12" d="M13.05 40.4a2.5 2.5 0 01-.55-1.762v.187a2.425 2.425 0 00.588 1.75l.087-.088-.125-.087zM40 26.625l-6.25 3.538.112.112L40 26.8a2.188 2.188 0 001.325-1.8A2.325 2.325 0 0140 26.625z" fill="#000"/><path opacity=".25" d="M15.637 9.525L40 23.375c.675.3 1.166.904 1.325 1.625A2.187 2.187 0 0040 23.2L15.637 9.35c-1.737-1-3.175-.175-3.175 1.825v.188c.038-2 1.438-2.826 3.175-1.838z" fill="#fff"/><defs><linearGradient id="paint0_linear" x1="21.839" y1="-9.44" x2="-2.962" y2="-2.838" gradientUnits="userSpaceOnUse"><stop stop-color="#00A0FF"/><stop offset=".01" stop-color="#00A1FF"/><stop offset=".26" stop-color="#00BEFF"/><stop offset=".51" stop-color="#00D2FF"/><stop offset=".76" stop-color="#00DFFF"/><stop offset="1" stop-color="#00E3FF"/></linearGradient><linearGradient id="paint1_linear" x1="42.288" y1="12.25" x2="12.05" y2="12.25" gradientUnits="userSpaceOnUse"><stop stop-color="#FFE000"/><stop offset=".41" stop-color="#FFBD00"/><stop offset=".78" stop-color="orange"/><stop offset="1" stop-color="#FF9C00"/></linearGradient><linearGradient id="paint2_linear" x1="12.609" y1="16.899" x2="-7.343" y2="50.398" gradientUnits="userSpaceOnUse"><stop stop-color="#FF3A44"/><stop offset="1" stop-color="#C31162"/></linearGradient><linearGradient id="paint3_linear" x1=".893" y1="5.124" x2="9.796" y2="20.083" gradientUnits="userSpaceOnUse"><stop stop-color="#32A071"/><stop offset=".07" stop-color="#2DA771"/><stop offset=".48" stop-color="#15CF74"/><stop offset=".8" stop-color="#06E775"/><stop offset="1" stop-color="#00F076"/></linearGradient></defs></svg>