<svg width="169" height="50" fill="none" xmlns="http://www.w3.org/2000/svg"><rect width="168.75" height="50" rx="8" fill="#000"/><g clip-path="url(#clip0)"><path d="M34.175 10.155H17.27a6.397 6.397 0 00-6.397 6.397v16.906a6.397 6.397 0 006.397 6.397h16.906a6.397 6.397 0 006.397-6.397V16.552a6.397 6.397 0 00-6.397-6.397z" fill="#E14459"/><path d="M18.112 12.096a.847.847 0 00-.843.843.84.84 0 00.845.841.846.846 0 00.845-.842v-.002a.84.84 0 00-.847-.84zm15.114 0a.847.847 0 00-.844.843.84.84 0 00.845.841.846.846 0 00.845-.842v-.002a.84.84 0 00-.846-.84z" fill="#C73148"/><path d="M18.078 12.822c-.293.016-.279.443-.279.443 1.579 3.073 4.484 4.58 7.835 4.58 3.346-.004 6.281-1.528 7.857-4.597 0 0 .063-.578-.553-.378-1.616 2.68-4.331 4.264-7.302 4.269-2.976 0-5.682-1.567-7.301-4.252a.537.537 0 00-.257-.065zm10.68 11.945l-.897 2.674-.874-2.671h-.853l1.377 3.886h.664l.9-2.553.899 2.553h.67l1.374-3.886h-.832l-.875 2.671-.898-2.674h-.654zm-4.768.002l-1.742 3.885h.819l.336-.752.024-.057h1.81l.355.81h.84l-1.725-3.864-.016-.023h-.701zm12.616 0v3.883h.791v-3.883h-.791zm-22.699 0v3.889h.803v-1.58h1.811v1.58h.803v-3.889h-.803v1.57H14.71v-1.57h-.803zm7.13.001v2.226c0 .632-.319.97-.898.97-.583 0-.904-.347-.904-.997v-2.196h-.803v2.223c0 1.094.619 1.721 1.696 1.721 1.088 0 1.712-.64 1.712-1.753V24.77h-.802zm11.628.002v3.883h2.986v-.708h-2.195v-.963h1.46v-.708h-1.46v-.796h2.118v-.708h-2.91zm-8.335.98l.572 1.302.039.09h-1.214l.039-.09.564-1.302z" fill="#fff"/></g><path fill-rule="evenodd" clip-rule="evenodd" d="M6.25 0H162.5a6.25 6.25 0 016.25 6.25v37.5A6.25 6.25 0 01162.5 50H6.25A6.25 6.25 0 010 43.75V6.25A6.25 6.25 0 016.25 0zm161.5 6.25A5.25 5.25 0 00162.5 1H6.25A5.25 5.25 0 001 6.25v37.5C1 46.65 3.35 49 6.25 49H162.5a5.25 5.25 0 005.25-5.25V6.25z" fill="#A6A6A6"/><defs><clipPath id="clip0"><path fill="#fff" transform="translate(10.67 10)" d="M0 0h30v30H0z"/></clipPath></defs></svg>