<svg width="48" height="48" fill="none" xmlns="http://www.w3.org/2000/svg"><path fill-rule="evenodd" clip-rule="evenodd" d="M13.414 35l3.293-3.293a1 1 0 00-1.414-1.414L12 33.586l-3.293-3.293a.999.999 0 10-1.414 1.414L10.586 35l-3.293 3.293a.999.999 0 101.414 1.414L12 36.414l3.293 3.293a.997.997 0 001.414 0 1 1 0 000-1.414L13.414 35zM6 14h4v4a1 1 0 102 0v-4h4a1 1 0 100-2h-4V8a1 1 0 10-2 0v4H6a1 1 0 100 2zm24 0h10a1 1 0 100-2H30a1 1 0 100 2zm10 22H30a1 1 0 100 2h10a1 1 0 100-2zm0-4H30a1 1 0 100 2h10a1 1 0 100-2z" fill="#FFDC48"/><path fill-rule="evenodd" clip-rule="evenodd" d="M41 46H24V24h22v17c0 2.757-2.243 5-5 5zM2 41V24h20v22H7c-2.757 0-5-2.243-5-5zM7 2h15v20H2V7c0-2.757 2.243-5 5-5zm39 5v15H24V2h17c2.757 0 5 2.243 5 5zm-5-7H7C3.141 0 0 3.14 0 7v34c0 3.86 3.141 7 7 7h34c3.859 0 7-3.14 7-7V7c0-3.86-3.141-7-7-7z" fill="#FFDC48"/></svg>