<svg width="42" height="48" fill="none" xmlns="http://www.w3.org/2000/svg"><path fill-rule="evenodd" clip-rule="evenodd" d="M37 36.476V24h3v7.515c-.163.488-.919 2.495-3 4.961zM2 31.512V24h18v21.658C5.731 41.223 2.367 32.59 2 31.512zM5 5.476V22H2V3.899a23.209 23.209 0 003 1.577zm7 1.266a13.762 13.762 0 003-.543V22h-3V6.742zM10 22H7V6.202c1.005.293 1.999.478 3 .55V22zM20 3.451V22h-3V5.407a13.717 13.717 0 003-1.956zM27 24h3v18.211a34.272 34.272 0 01-3 1.55V24zm-5 0h3v20.613c-.94.369-1.943.717-3 1.045V24zm13 14.559a26.887 26.887 0 01-3 2.39V24h3v14.559zM30.975 6.791c2.964 0 5.804-.901 9.025-2.892V22H22V3.453a13.695 13.695 0 008.975 3.338zm10.487-5.635a.996.996 0 00-1.034.067c-3.534 2.468-6.45 3.568-9.453 3.568-3.575 0-6.92-1.61-9.18-4.418-.018-.022-.048-.03-.068-.05A.973.973 0 0021.5.154c-.025-.014-.043-.036-.07-.047A.976.976 0 0021 0a.971.971 0 00-.429.106c-.035.014-.059.044-.092.061-.073.046-.146.09-.204.153-.022.021-.053.029-.072.053-2.26 2.808-5.604 4.418-9.178 4.418-3.004 0-5.921-1.1-9.452-3.568a.998.998 0 00-1.035-.067.997.997 0 00-.538.886v29.624c0 .09.012.179.036.266.124.452 3.251 11.143 20.694 16.031A.951.951 0 0021 48a.951.951 0 00.27-.037c17.443-4.888 20.57-15.579 20.694-16.031a.998.998 0 00.036-.266V2.042a.997.997 0 00-.538-.886z" fill="#FFDC48"/></svg>