<svg width="48" height="48" fill="none" xmlns="http://www.w3.org/2000/svg"><path fill-rule="evenodd" clip-rule="evenodd" d="M2 16h44v30H2V16zM8 6v3a1 1 0 001 1h6a1 1 0 001-1V6h16v3a1 1 0 001 1h6a1 1 0 001-1V6h6v8H2V6h6zm2-4h4v6h-4V2zm24 0h4v6h-4V2zm13 2h-7V1a1 1 0 00-1-1h-6a1 1 0 00-1 1v3H16V1a1 1 0 00-1-1H9a1 1 0 00-1 1v3H1a1 1 0 00-1 1v42a1 1 0 001 1h46a1 1 0 001-1V5a1 1 0 00-1-1z" fill="#FFDC48"/><path fill-rule="evenodd" clip-rule="evenodd" d="M23 38h-3V23a1.002 1.002 0 00-1.707-.707l-4 4a.999.999 0 101.414 1.414L18 25.414V38h-3a1 1 0 100 2h8a1 1 0 100-2zm11-16H24a1 1 0 00-1 1v2a1 1 0 102 0v-1h7.557l-2.25 6H27a1 1 0 100 2h2.557l-2.494 6.648A1.003 1.003 0 0028 40c.405 0 .786-.247.937-.648L31.693 32H33a1 1 0 100-2h-.557l2.494-6.648A1.003 1.003 0 0034 22z" fill="#FFDC48"/></svg>