<svg width="95" height="32" fill="none" xmlns="http://www.w3.org/2000/svg"><path d="M46.443 12.12c-3.81 0-7.336 2.77-7.336 6.987 0 4.216 3.525 6.987 7.336 6.987 3.81 0 7.336-2.77 7.336-6.987 0-4.216-3.525-6.987-7.336-6.987zm0 10.408c-1.881 0-3.406-1.542-3.406-3.445 0-1.903 1.525-3.445 3.406-3.445 1.882 0 3.406 1.542 3.406 3.445 0 1.903-1.524 3.445-3.406 3.445zm-29.58-10.095h4.143v13.324h-4.144V12.433zm4.525-4.12c0 1.301-1.12 2.313-2.454 2.313-1.333 0-2.453-1.012-2.453-2.313 0-1.301 1.12-2.313 2.453-2.313 1.334.024 2.454 1.012 2.454 2.313zm16.028 10.794v6.65h-4.144V19.42c0-2.24-.857-3.542-2.715-3.542-1.858 0-2.715 1.302-2.715 3.542v6.337h-4.144v-6.65c0-4.216 2.667-6.987 6.86-6.987 4.19 0 6.858 2.77 6.858 6.987zm40.275-.12v6.77h-4.144v-6.77c0-2.024-.834-3.109-2.453-3.109-1.62 0-2.454 1.085-2.454 3.108v6.77h-4.144v-6.77c0-2.023-.833-3.108-2.453-3.108-1.62 0-2.453 1.085-2.453 3.108v6.77h-4.097v-6.77c0-4.216 2.835-6.866 6.598-6.866 1.929 0 3.477.699 4.525 1.951 1.048-1.252 2.596-1.951 4.525-1.951 3.716 0 6.55 2.65 6.55 6.867zm9.05-6.867c-3.81 0-7.335 2.77-7.335 6.987 0 4.216 3.525 6.987 7.335 6.987 3.811 0 7.336-2.77 7.336-6.987 0-4.216-3.525-6.987-7.336-6.987zm0 10.408c-1.881 0-3.406-1.542-3.406-3.445 0-1.903 1.525-3.445 3.406-3.445 1.882 0 3.406 1.542 3.406 3.445 0 1.903-1.524 3.445-3.406 3.445zM7.598 12.12c-1.43 0-2.62.361-3.55 1.06V6.193H0V18.36c0 4.891 3.31 7.734 7.264 7.734s7.431-2.77 7.431-6.987c.024-4.216-3.287-6.987-7.097-6.987zm-.19 10.408C5.525 22.528 4 20.986 4 19.083c0-1.903 1.525-3.445 3.406-3.445 1.882 0 3.406 1.542 3.406 3.445 0 1.903-1.524 3.445-3.406 3.445z" fill="#2A2B30"/></svg>