<svg viewBox="0 0 40 40" fill="none" xmlns="http://www.w3.org/2000/svg"><path fill-rule="evenodd" clip-rule="evenodd" d="M20 33.014c7.732 0 14-6.048 14-13.507C34 12.047 27.732 6 20 6S6 12.047 6 19.507s6.268 13.507 14 13.507z" fill="#E1E1E2"/><path clip-rule="evenodd" d="M20 30.51c6.298 0 11.404-4.927 11.404-11.004S26.298 8.503 20 8.503c-6.3 0-11.405 4.926-11.405 11.003S13.7 30.51 20 30.51z" stroke="#000" stroke-width=".7"/><mask id="a" fill="#fff"><path fill-rule="evenodd" clip-rule="evenodd" d="M16.543 16.548h2.597v7.157h-2.597v-7.157zm.7.7v5.757h1.197v-5.757h-1.197zm3.534-.7h2.597v7.157h-2.597v-7.157zm.7.7v5.757h1.197v-5.757h-1.197zm-1.443-5.374l.132.053 7.239 2.934.214.087.004.23.034 1.714.008.357h-1.886v5.757h1.844v2.413H12.445v-2.413h1.845v-5.757h-1.845V14.95l.219-.089 7.239-2.934.131-.053zm-6.889 3.547v1.128h1.845v7.157h-1.845v1.013h13.778v-1.013H25.08v-7.157h1.87l-.022-1.126-6.894-2.794-6.889 2.792z"/></mask><path d="M16.543 16.548v-2a2 2 0 00-2 2h2zm2.597 0h2a2 2 0 00-2-2v2zm0 7.157v2a2 2 0 002-2h-2zm-2.597 0h-2a2 2 0 002 2v-2zm.7-.7h-2a2 2 0 002 2v-2zm0-5.757v-2a2 2 0 00-2 2h2zm1.197 5.757v2a2 2 0 002-2h-2zm0-5.757h2a2 2 0 00-2-2v2zm2.337-.7v-2a2 2 0 00-2 2h2zm2.597 0h2a2 2 0 00-2-2v2zm0 7.157v2a2 2 0 002-2h-2zm-2.597 0h-2a2 2 0 002 2v-2zm.7-.7h-2a2 2 0 002 2v-2zm0-5.757v-2a2 2 0 00-2 2h2zm1.197 5.757v2a2 2 0 002-2h-2zm0-5.757h2a2 2 0 00-2-2v2zm-2.508-5.32l.751-1.854-.751 1.853zm-.132-.054l.752-1.854a2 2 0 00-1.503 0l.751 1.854zm7.37 2.987l.752-1.853-.751 1.853zm.215.087l2-.04a2 2 0 00-1.25-1.814l-.75 1.854zm.004.23l2-.04-2 .04zm.034 1.714l2-.04-2 .04zm.008.357v2a2 2 0 002-2.04l-2 .04zm-1.886 0v-2a2 2 0 00-2 2h2zm0 5.757h-2a2 2 0 002 2v-2zm1.844 0h2a2 2 0 00-2-2v2zm0 2.413v2a2 2 0 002-2h-2zm-15.178 0h-2a2 2 0 002 2v-2zm0-2.413v-2a2 2 0 00-2 2h2zm1.844 0v2a2 2 0 002-2h-2zm0-5.757h2a2 2 0 00-2-2v2zm-1.844 0h-2a2 2 0 002 2v-2zm0-2.3l-.75-1.853a2 2 0 00-1.25 1.854h2zm.219-.088l.751 1.854-.751-1.854zm7.239-2.934l-.751-1.853.75 1.853zm-6.758 4.622h-2a2 2 0 002 2v-2zm0-1.128l-.75-1.853a2 2 0 00-1.25 1.853h2zm1.844 1.128h2a2 2 0 00-2-2v2zm0 7.157v2a2 2 0 002-2h-2zm-1.844 0v-2a2 2 0 00-2 2h2zm0 1.013h-2a2 2 0 002 2v-2zm13.778 0v2a2 2 0 002-2h-2zm0-1.013h2a2 2 0 00-2-2v2zm-1.843 0h-2a2 2 0 002 2v-2zm0-7.157v-2a2 2 0 00-2 2h2zm1.87 0v2a2 2 0 002-2.04l-2 .04zm-.022-1.126l2-.04a2 2 0 00-1.249-1.813l-.751 1.853zm-6.894-2.794l.752-1.853a2 2 0 00-1.503 0l.751 1.853zm-3.141 1.919h-.35v4h.35v-4zm1.897 0h-1.897v4h1.897v-4zm.35 0h-.35v4h.35v-4zm2 2.35v-.35h-4v.35h4zm0 6.457v-6.457h-4v6.457h4zm0 .35v-.35h-4v.35h4zm-2.35 2h.35v-4h-.35v4zm-1.897 0h1.897v-4h-1.897v4zm-.35 0h.35v-4h-.35v4zm-2-2.35v.35h4v-.35h-4zm0-6.457v6.457h4v-6.457h-4zm0-.35v.35h4v-.35h-4zm4.7 6.457v-5.757h-4v5.757h4zm-.803-2h-1.197v4h1.197v-4zm-2-3.757v5.757h4v-5.757h-4zm.803 2h1.197v-4h-1.197v4zm3.884-4.7h-.35v4h.35v-4zm1.897 0h-1.897v4h1.897v-4zm.35 0h-.35v4h.35v-4zm2 2.35v-.35h-4v.35h4zm0 6.457v-6.457h-4v6.457h4zm0 .35v-.35h-4v.35h4zm-2.35 2h.35v-4h-.35v4zm-1.897 0h1.897v-4h-1.897v4zm-.35 0h.35v-4h-.35v4zm-2-2.35v.35h4v-.35h-4zm0-6.457v6.457h4v-6.457h-4zm0-.35v.35h4v-.35h-4zm4.7 6.457v-5.757h-4v5.757h4zm-.803-2h-1.197v4h1.197v-4zm-2-3.757v5.757h4v-5.757h-4zm.803 2h1.197v-4h-1.197v4zm-.56-9.174l-.131-.053-1.503 3.707.132.053 1.502-3.707zm7.24 2.934l-7.24-2.934-1.502 3.707 7.239 2.934 1.502-3.707zm.213.086l-.214-.086-1.502 3.707.213.086 1.503-3.707zm1.253 2.045l-.005-.231-3.999.08.005.23 3.999-.08zm.034 1.713l-.034-1.713-4 .08.035 1.713 3.999-.08zm.007.357l-.007-.357-4 .08.008.357 4-.08zm-2.357 2.04h.358v-4h-.357v4zm-1.527 0h1.527v-4H25.78v4zm2 3.757v-5.757h-4v5.757h4zm-.507-2H25.78v4h1.494v-4zm.35 0h-.35v4h.35v-4zm2 2.35v-.35h-4v.35h4zm0 1.713v-1.713h-4v1.713h4zm0 .35v-.35h-4v.35h4zm-2.35 2h.35v-4h-.35v4zm-14.478 0h14.478v-4H12.795v4zm-.35 0h.35v-4h-.35v4zm-2-2.35v.35h4v-.35h-4zm0-1.713v1.713h4v-1.713h-4zm0-.35v.35h4v-.35h-4zm2.35-2h-.35v4h.35v-4zm1.494 0h-1.494v4h1.494v-4zm-2-3.757v5.757h4v-5.757h-4zm.506 2h1.494v-4h-1.494v4zm-.35 0h.35v-4h-.35v4zm-2-2.35v.35h4v-.35h-4zm0-1.713v1.713h4v-1.713h-4zm0-.236v.236h4v-.236h-4zm1.468-1.942l-.219.088 1.502 3.707.22-.088-1.503-3.707zm7.239-2.934l-7.24 2.934 1.503 3.707 7.24-2.934-1.503-3.707zm.131-.053l-.131.053 1.502 3.707.132-.053-1.503-3.707zm-4.138 6.528V15.42h-4v1.128h4zm-.506-2h-1.494v4h1.494v-4zm.35 0h-.35v4h.35v-4zm2 2.35v-.35h-4v.35h4zm0 6.457v-6.457h-4v6.457h4zm0 .35v-.35h-4v.35h4zm-2.35 2h.35v-4h-.35v4zm-1.494 0h1.494v-4h-1.494v4zm2-.987v-1.013h-4v1.013h4zm11.778-2H13.145v4h13.778v-4zm-2 .987v1.013h4v-1.013h-4zm.507 2h1.493v-4H25.43v4zm-.35 0h.35v-4h-.35v4zm-2-2.35v.35h4v-.35h-4zm0-6.457v6.457h4v-6.457h-4zm0-.35v.35h4v-.35h-4zm2.35-2h-.35v4h.35v-4zm1.52 0h-1.52v4h1.52v-4zm-2.022.914l.023 1.126 4-.08-.023-1.126-4 .08zm-5.645-.98l6.894 2.794 1.502-3.707-6.893-2.794-1.503 3.707zm-5.387 2.792l6.89-2.792-1.503-3.707-6.889 2.792 1.502 3.707z" fill="#000" mask="url(#a)"/></svg>