<svg viewBox="0 0 40 40" fill="none" xmlns="http://www.w3.org/2000/svg"><path fill-rule="evenodd" clip-rule="evenodd" d="M29.537 29.06c-.042 0-.108-.023-.275-.106L18.155 21.53c-.055-.063-.125-.188-.125-.257V8.124c0-.218.12-.336.355-.336V7c-.664 0-1.143.466-1.143 1.124v13.15c0 .32.17.623.418.866l11.21 7.496c.326.164.46.213.667.213.32 0 .628-.164.875-.405l.051-.062C32.114 26.926 33 24.142 33 21.273 33 13.383 26.459 7 18.385 7v.788c7.644 0 13.827 6.035 13.827 13.485 0 2.694-.829 5.314-2.379 7.633-.106.095-.223.155-.296.155zm-14.125-6.845v-9.797l-.478.107C10.352 13.536 7 17.579 7 22.215c0 5.54 4.601 9.997 10.305 9.997 2.623 0 5.08-.928 6.902-2.616l.368-.34-8.34-5.517c-.523-.382-.823-.934-.823-1.523z" fill="#E1E1E2"/></svg>