<svg viewBox="0 0 40 40" fill="none" xmlns="http://www.w3.org/2000/svg"><path fill-rule="evenodd" clip-rule="evenodd" d="M20.666 28.635a8.988 8.988 0 100-17.976 8.988 8.988 0 000 17.976zm0-2.663a6.325 6.325 0 100-12.65 6.325 6.325 0 000 12.65zm-6.99-6.326a6.99 6.99 0 1013.98 0 6.99 6.99 0 00-13.98 0zM21.136 0a4.179 4.179 0 013.375 4.316l.108-.052 2.192 4.426 1.273 1.038a4.18 4.18 0 01.424-4.767 4.178 4.178 0 01.684 5.67l.677.552-.06 1.946-.81-.025.047-1.555-2.851-2.325a4.179 4.179 0 01-5.073-2.437 4.176 4.176 0 014.128.573l-1.278-2.58A4.179 4.179 0 0121.135 0zm-.52 29.965h3.102v1.997l3.38 1.998v5.993H14.254V33.96l3.38-1.998.016-1.997h2.965zM14.137 8.312a4.18 4.18 0 013.376-4.317 4.179 4.179 0 01-2.837 4.78l-2.148 4.338-.729-.35 2.23-4.503.108.052zm-2.644-.686a4.178 4.178 0 00-.515 5.886 4.178 4.178 0 00.515-5.886z" fill="#E1E1E2"/></svg>