<svg viewBox="0 0 40 40" fill="none" xmlns="http://www.w3.org/2000/svg"><path fill-rule="evenodd" clip-rule="evenodd" d="M25.622 31.151c4.22-4.991 4.602-9.122 4.298-12.444-.677-7.393-6.459-13.073-11.578-15.43a11.849 11.849 0 00-.546-.23c-.52-.208-.986.31-1.03.868-.106 1.33-1.126 2.853-2.342 4.671-1.77 2.647-3.958 5.918-4.352 10.12-.76 8.12 4.762 12.445 4.762 12.445h2.62c.091.005 2.765.002 4.392.001h3.776zm-2.548 0c3.54-4.991 5.034-9.499 4.497-13.584-.551-4.195-3.492-8.118-8.79-11.774l-.375-.259-.173.421c-.644 1.566-1.57 3.317-2.779 5.251-2.424 3.881-3.379 6.224-3.379 9.317 0 3.53 1.801 7.088 5.378 10.628h5.621zm-.76-.189c3.544-4.935 5.047-9.367 4.53-13.3-.508-3.863-3.202-7.534-8.11-11.007-.65 1.496-1.535 3.142-2.658 4.94-2.357 3.773-3.267 6.007-3.267 8.928 0 3.425 1.833 6.904 5.525 10.44l.23.188h3.61l.14-.189z" fill="#E1E1E2"/><path d="M27.11 32.618H13.37l-2.863 2.56v1.841h19.465v-1.827l-2.862-2.574z" fill="#E1E1E2"/><path fill-rule="evenodd" clip-rule="evenodd" d="M17.792 30.466c-.785-.461-2.201-2.935-3.186-4.988-.984-2.052-1.466-2.052-1.594-4.05-.128-1.998.128-2.494.77-4.281.643-1.787 1.79-3.035 1.79-3.035s.646-1.168 1.341-2.307 1.014-1.418 1.42-2.218c.408-.799.652-1.849.652-1.849s.709.729 1.848 1.85c1.138 1.12 1.462 1.237 2.284 2.217.823.98 1.512 2.307 1.512 2.307l1.064 2.099s.6 1.372.6 3.14c0 1.766-.6 3.553-.6 3.553l-1.064 2.574s-.419 1.083-1.043 2.561c-.624 1.478-.348 1.373-1.202 2.159-.853.785-2.394.953-2.394.953s-1.414-.223-2.198-.684z" fill="#E1E1E2"/></svg>